<svg width="249" height="272" viewBox="0 0 249 272" fill="none" xmlns="http://www.w3.org/2000/svg">
<rect x="61" y="137" width="8" height="50" rx="4" fill="#1581C1"/>
<rect x="43" y="156" width="44" height="93" rx="8" fill="url(#paint0_linear_40_194)"/>
<rect x="189" y="213" width="7" height="46" rx="3.5" fill="#38C5E3"/>
<rect x="171" y="114" width="44" height="113" rx="8" fill="url(#paint1_linear_40_194)"/>
<rect x="125" y="222" width="7" height="50" rx="3.5" fill="#1F9FD1"/>
<rect x="107" y="171" width="44" height="80" rx="8" fill="url(#paint2_linear_40_194)"/>
<rect x="12.9134" y="155.62" width="20.0897" height="117.683" rx="10.0448" transform="rotate(-130 12.9134 155.62)" fill="url(#paint3_linear_40_194)"/>
<rect x="119.497" y="128.888" width="20.0897" height="119.533" rx="10.0448" transform="rotate(-130 119.497 128.888)" fill="url(#paint4_linear_40_194)"/>
<rect x="133.86" y="116.098" width="20.0897" height="65.6678" rx="10.0448" transform="rotate(140 133.86 116.098)" fill="url(#paint5_linear_40_194)"/>
<path d="M218.834 23.4093C222.413 22.6075 225.608 25.803 224.806 29.3815L217.672 61.22C216.811 65.0661 212.045 66.4494 209.258 63.6623L184.553 38.9577C181.766 36.1707 183.149 31.4049 186.996 30.5432L218.834 23.4093Z" fill="url(#paint6_linear_40_194)"/>
<defs>
<linearGradient id="paint0_linear_40_194" x1="43" y1="202.5" x2="109.855" y2="198.957" gradientUnits="userSpaceOnUse">
<stop stop-color="#095EB0"/>
<stop offset="1" stop-color="#29BFDF"/>
</linearGradient>
<linearGradient id="paint1_linear_40_194" x1="171" y1="170.5" x2="251.084" y2="127.845" gradientUnits="userSpaceOnUse">
<stop stop-color="#29BFDF"/>
<stop offset="1" stop-color="#94ECFF"/>
</linearGradient>
<linearGradient id="paint2_linear_40_194" x1="107" y1="211" x2="191.25" y2="180.581" gradientUnits="userSpaceOnUse">
<stop stop-color="#1C98CC"/>
<stop offset="1" stop-color="#31CBEB"/>
</linearGradient>
<linearGradient id="paint3_linear_40_194" x1="24.7646" y1="155.62" x2="-12.9151" y2="167.785" gradientUnits="userSpaceOnUse">
<stop stop-color="#0D6AB6"/>
<stop offset="1" stop-color="#1B95CB"/>
</linearGradient>
<linearGradient id="paint4_linear_40_194" x1="129.645" y1="147.755" x2="127.523" y2="251.859" gradientUnits="userSpaceOnUse">
<stop stop-color="#27B1DC"/>
<stop offset="0.74889" stop-color="#71DDF5"/>
</linearGradient>
<linearGradient id="paint5_linear_40_194" x1="143.905" y1="181.766" x2="140.296" y2="115.702" gradientUnits="userSpaceOnUse">
<stop stop-color="#1686C4"/>
<stop offset="0.538385" stop-color="#2AB3DD"/>
</linearGradient>
<linearGradient id="paint6_linear_40_194" x1="226.531" y1="21.6847" x2="187.03" y2="61.1851" gradientUnits="userSpaceOnUse">
<stop stop-color="#ADF0FF"/>
<stop offset="0.345331" stop-color="#72DEF6"/>
</linearGradient>
</defs>
</svg>
